<svg width="65" height="64" viewBox="0 0 65 64" fill="none" xmlns="http://www.w3.org/2000/svg">
<path d="M55.9817 0H31.9717H8.14368C3.18608 0.01 0.0456769 2.979 0.0352769 7.8871C-0.00912307 23.9561 -0.0143231 40.0201 0.0352769 56.0911C0.0552769 60.8815 3.05778 63.9279 7.81848 63.9475C23.9465 64.0123 40.0755 64.0123 56.1985 63.9635C61.0337 63.9435 64.0309 60.7967 64.0309 55.9731C64.0509 39.9641 64.0509 23.9521 64.0309 7.9491C64.0229 3.0488 60.9236 0.00600544 55.9797 0.00120544L55.9817 0ZM31.9227 19.768C38.6479 19.709 44.1297 25.1319 44.1787 31.897C44.2339 38.667 38.8251 44.125 32.0657 44.139C25.2993 44.155 19.9017 38.7522 19.8967 31.961C19.8847 25.2806 25.2699 19.828 31.9227 19.769V19.768ZM56.7677 28.9443V53.1373C56.7677 55.6412 55.9468 56.3968 53.5334 56.3968C39.2954 56.4208 24.9964 56.4208 10.7654 56.3998C8.50188 56.3968 7.60766 55.6144 7.60766 53.486C7.57566 45.062 7.57168 36.546 7.57968 28.121C7.57968 27.835 7.62087 28.2166 7.67047 27.0722H12.7873C11.3756 35.0866 13.188 41.3272 18.9113 46.5562C23.0101 50.2954 27.9445 51.9062 33.4593 51.5366C43.9823 50.805 53.9233 40.8126 51.2963 27.0736H56.7691V28.9432L56.7677 28.9443ZM56.4597 17.0963C56.4197 18.7255 55.5014 19.5693 53.8527 19.5899C52.6826 19.6019 51.4919 19.5899 50.3116 19.5899C49.1907 19.5899 48.0687 19.6099 46.9444 19.5899C45.4079 19.5539 44.4852 18.7896 44.4554 17.22C44.411 14.7904 44.4194 12.3712 44.4474 9.94521C44.4714 8.36411 45.3656 7.5752 46.917 7.5649C49.2812 7.5449 51.6478 7.5329 54.0074 7.5649C55.5885 7.5889 56.4265 8.47861 56.4575 10.0104C56.5167 12.3701 56.5167 14.7308 56.4575 17.0964L56.4597 17.0963Z" fill="white"/>
</svg>
