<svg width="31" height="66" viewBox="0 0 31 66" fill="none" xmlns="http://www.w3.org/2000/svg">
<path d="M6.70396 33.0003C6.87196 33.2163 6.77596 34.6803 6.77596 34.9523L6.79196 65.9202H20.2119C20.2959 57.7722 20.2199 49.4042 20.2199 41.2163C20.2199 41.0963 20.1879 33.2803 20.2279 33.1163C20.2519 33.0123 20.2519 33.0243 20.2839 32.9803C20.3039 32.9843 28.8278 33.0563 29.1198 32.9763L29.2678 32.9363L30.4478 21.6324H20.2559C20.2159 19.9644 20.2639 18.2484 20.2639 16.5724C20.2639 15.0444 20.2319 13.1565 21.1399 12.3165L30.3958 11.3925L30.3838 0.0525305C28.6278 -0.0554689 26.5558 0.0365303 24.7639 0.0365303C22.9039 0.0365303 21.0199 0.000530605 19.1919 0.12053C15.7079 0.352529 12.8999 1.39652 10.8599 3.12451C7.91595 7.85249 6.77196 3.79251 6.74796 21.6364H0L0.012 32.9923L6.70396 33.0003V33.0003Z" fill="white"/>
</svg>
