<svg width="411" height="106" viewBox="0 0 411 106" fill="none" xmlns="http://www.w3.org/2000/svg">
<path d="M44.0992 33.2999L15.9992 104.6H0.699219L42.2992 0.899902H45.9992L86.9992 104.6H71.7992L44.0992 33.2999Z" fill="black"/>
<path d="M91.3992 98.7001L96.4992 85.9001C99.0992 87.8001 102.299 89.4001 106.199 90.7001C110.099 92.0001 113.499 92.6001 116.599 92.6001C121.999 92.6001 126.399 91.1001 129.599 88.2001C132.899 85.2001 134.499 81.5001 134.499 76.9001C134.499 73.5001 133.599 70.3001 131.799 67.4001C129.999 64.5001 125.399 61.3001 117.999 57.8001L109.799 54.0001C102.899 50.8001 97.9992 46.9001 95.2992 42.5001C92.4992 38.1001 91.1992 32.7001 91.1992 26.5001C91.1992 18.9001 93.8992 12.6001 99.1992 7.6001C104.599 2.6001 111.499 0.100098 119.899 0.100098C131.099 0.100098 138.999 1.9001 143.299 5.6001L139.199 17.7001C137.299 16.4001 134.499 15.1001 130.699 13.8001C126.899 12.6001 123.399 11.9001 120.199 11.9001C115.499 11.9001 111.799 13.2001 109.099 15.9001C106.399 18.6001 104.999 22.0001 104.999 26.2001C104.999 28.8001 105.499 31.1001 106.499 33.3001C107.499 35.4001 108.799 37.2001 110.599 38.6001C112.299 40.0001 115.899 42.0001 121.199 44.6001L129.499 48.6001C136.399 51.9001 141.299 55.8001 144.099 60.4001C146.899 65.0001 148.299 70.7001 148.299 77.8001C148.299 85.4001 145.199 91.9001 139.099 97.2001C132.999 102.5 124.799 105.2 114.499 105.2C105.399 105.1 97.6992 102.9 91.3992 98.7001Z" fill="black"/>
<path d="M201.498 13.7V104.4H187.498V13.7H154.898V1H233.998V13.7H201.498Z" fill="black"/>
<path d="M290.398 57.4C295.898 56.1 300.598 52.9 304.498 47.8C308.398 42.7 310.398 36.9 310.398 30.4C310.398 10.8 298.098 1 273.498 1C270.398 1 265.498 1.2 258.798 1.5C252.098 1.8 248.398 2 247.898 2V104.4H261.898V14.6C265.998 14.1 268.798 13.9 270.098 13.9C278.998 13.9 285.398 15.2 289.498 17.7C293.598 20.2 295.698 24.3 295.698 30.1C295.698 37 293.798 41.9 289.998 44.6C286.198 47.3 278.798 48.6 270.398 48.7C270.398 48.8 270.398 48.9 270.298 49L303.998 104.6H319.998L290.398 57.4Z" fill="black"/>
<path d="M71.7988 104.5H86.9988" stroke="black" stroke-width="0.25" stroke-miterlimit="10"/>
<path d="M368 33.2999L339.9 104.6H324.6L366.2 0.899902H369.9L410.9 104.6H395.7L368 33.2999Z" fill="black"/>
</svg>
