<?xml version="1.0" encoding="utf-8"?>
<!-- Generator: Adobe Illustrator 19.0.0, SVG Export Plug-In . SVG Version: 6.00 Build 0)  -->
<svg version="1.1" id="Слой_1" xmlns="http://www.w3.org/2000/svg" xmlns:xlink="http://www.w3.org/1999/xlink" x="0px" y="0px"
	 viewBox="0 0 429.4 371.5" style="enable-background:new 0 0 429.4 371.5;" xml:space="preserve">
<style type="text/css">
	.st0{fill:none;}
	.st1{fill:none;stroke:#000000;stroke-miterlimit:10;}
	.st2{fill:none;stroke:#000000;stroke-width:0.25;stroke-miterlimit:10;}
</style>
<path class="st0" d="M68.6,315.5"/>
<g>
	<polygon points="54.1,166.3 26,237.6 10.7,237.6 52.3,133.9 56,133.9 97,237.6 81.8,237.6 54.1,166.3 	"/>
	<path d="M33.9,215.9"/>
	<path d="M72,215.9"/>
	<path d="M101.4,231.7l5.1-12.8c2.6,1.9,5.8,3.5,9.7,4.8c3.9,1.3,7.3,1.9,10.4,1.9c5.4,0,9.8-1.5,13-4.4c3.3-3,4.9-6.7,4.9-11.3
		c0-3.4-0.9-6.6-2.7-9.5c-1.8-2.9-6.4-6.1-13.8-9.6l-8.2-3.8c-6.9-3.2-11.8-7.1-14.5-11.5c-2.8-4.4-4.1-9.8-4.1-16
		c0-7.6,2.7-13.9,8-18.9c5.4-5,12.3-7.5,20.7-7.5c11.2,0,19.1,1.8,23.4,5.5l-4.1,12.1c-1.9-1.3-4.7-2.6-8.5-3.9
		c-3.8-1.2-7.3-1.9-10.5-1.9c-4.7,0-8.4,1.3-11.1,4c-2.7,2.7-4.1,6.1-4.1,10.3c0,2.6,0.5,4.9,1.5,7.1c1,2.1,2.3,3.9,4.1,5.3
		c1.7,1.4,5.3,3.4,10.6,6l8.3,4c6.9,3.3,11.8,7.2,14.6,11.8c2.8,4.6,4.2,10.3,4.2,17.4c0,7.6-3.1,14.1-9.2,19.4
		c-6.1,5.3-14.3,8-24.6,8C115.4,238.1,107.7,235.9,101.4,231.7z"/>
	<path d="M211.5,146.7v90.7h-14v-90.7h-32.6V134h79.1v12.7H211.5z"/>
	<path d="M300.4,190.4c5.5-1.3,10.2-4.5,14.1-9.6s5.9-10.9,5.9-17.4c0-19.6-12.3-29.4-36.9-29.4c-3.1,0-8,0.2-14.7,0.5
		c-6.7,0.3-10.4,0.5-10.9,0.5v102.4h14v-89.8c4.1-0.5,6.9-0.7,8.2-0.7c8.9,0,15.3,1.3,19.4,3.8c4.1,2.5,6.2,6.6,6.2,12.4
		c0,6.9-1.9,11.8-5.7,14.5c-3.8,2.7-11.2,4-19.6,4.1c0,0.1,0,0.2-0.1,0.3l33.7,55.6h16L300.4,190.4z"/>
	<path class="st0" d="M107.2,214.8"/>
	<path class="st0" d="M43.7,137.5"/>
	<path class="st0" d="M79,237.5"/>
	<path class="st1" d="M53.8,240.7"/>
	<path class="st1" d="M54.1,112"/>
	<line class="st2" x1="81.8" y1="237.5" x2="97" y2="237.5"/>
	<polygon points="378,166.3 349.9,237.6 334.6,237.6 376.2,133.9 379.9,133.9 420.9,237.6 405.7,237.6 378,166.3 	"/>
	<path class="st2" d="M417.8,133.9"/>
	<path class="st2" d="M7.6,133.9"/>
</g>
</svg>
