<svg width="46" height="63" viewBox="0 0 46 63" fill="none" xmlns="http://www.w3.org/2000/svg">
<path d="M23.51 51.523C23.5041 51.6516 23.4488 51.7729 23.3557 51.8618C23.2625 51.9506 23.1387 52.0001 23.01 52C22.72 52 22.5 51.79 22.49 51.523C22.345 48.355 20.734 46.306 17.658 45.376C7.53 42.968 0 33.863 0 23C0 10.297 10.297 0 23 0C35.703 0 46 10.297 46 23C46 33.863 38.47 42.968 28.342 45.376C25.266 46.306 23.655 48.356 23.512 51.523H23.51Z" fill="black"/>
<path d="M23 63C20.79 63 19 61.21 19 59C19 56.79 20.79 55 23 55C25.21 55 27 56.79 27 59C27 61.21 25.21 63 23 63Z" fill="white"/>
<path fill-rule="evenodd" clip-rule="evenodd" d="M22.9997 61C23.266 61.006 23.5309 60.9588 23.7787 60.861C24.0266 60.7633 24.2524 60.617 24.4429 60.4308C24.6334 60.2446 24.7848 60.0222 24.8882 59.7766C24.9916 59.5311 25.0449 59.2674 25.0449 59.001C25.045 58.7346 24.9918 58.4708 24.8886 58.2253C24.7853 57.9797 24.634 57.7572 24.4436 57.5709C24.2532 57.3846 24.0274 57.2382 23.7797 57.1403C23.5319 57.0425 23.267 56.9951 23.0007 57.001C22.4781 57.0125 21.9809 57.2282 21.6153 57.6018C21.2498 57.9754 21.0451 58.4773 21.0449 59C21.0448 59.5227 21.2493 60.0246 21.6146 60.3984C21.98 60.7722 22.4772 60.9882 22.9997 61V61Z" fill="black"/>
</svg>
