<svg width="289" height="530" viewBox="0 0 289 530" fill="none" xmlns="http://www.w3.org/2000/svg">
<path d="M0.991409 498.254L26.7684 433.803C39.657 443.223 56.0154 451.156 75.3482 457.601C94.6809 464.046 112.031 467.02 127.894 467.02C155.158 467.02 176.969 459.584 193.823 444.71C210.182 429.837 218.609 410.998 218.609 387.696C218.609 370.344 214.147 354.479 204.729 339.606C195.31 324.733 172.508 308.868 135.329 291.02L94.1853 271.685C58.9897 255.324 34.6998 235.989 20.8199 213.679C6.93995 191.369 0 164.597 0 132.868C0 94.6931 13.3842 62.9635 40.6484 37.679C67.9125 12.3944 102.612 0 144.748 0C201.259 0 240.916 9.41976 263.223 27.7634L242.403 88.7438C232.985 81.803 218.609 75.3579 199.772 68.9128C180.439 62.4677 163.089 59.493 146.731 59.493C122.937 59.493 104.099 66.4339 90.7152 79.8198C76.8353 93.2058 70.3911 110.558 70.3911 131.876C70.3911 144.766 72.8696 156.665 77.8267 167.572C82.7839 178.479 89.7238 187.403 98.1509 194.344C107.074 201.781 124.919 211.696 151.688 224.586L193.823 244.417C229.019 260.778 253.309 280.609 267.684 303.91C281.564 326.716 289 355.967 289 391.662C289 430.333 273.633 462.558 242.403 489.826C211.669 516.598 170.029 529.984 118.475 529.984C71.8782 530.48 33.2127 519.572 0.991409 498.254Z" fill="#212121"/>
</svg>
