<svg width="700" height="700" viewBox="0 0 700 700" fill="none" xmlns="http://www.w3.org/2000/svg">
<path d="M313 1.60001C249.8 8.30001 190.9 31.5 140.3 69.4C70.3 121.9 22.5 197.9 6.1 283C1.2 308.4 0.5 316 0.5 350C0.5 384.7 1.2 391.8 6.6 419.5C15.8 465.7 35.5 511.6 63.3 551.2C85.9 583.4 116.1 613.8 147.4 635.7C195.2 669.3 245.9 689.2 305.1 697.5C320.4 699.7 363.1 700.6 379.7 699.1C425.1 695 466.9 683.2 507 663.1C575.5 628.7 629.6 574.3 663.5 505.5C683.5 465.1 693.9 429.4 698.6 384.8C700.8 363.9 700.1 321.5 697.1 302C689 247.3 670.8 199.6 641.7 156C583.1 68.3 490.4 12.4 385.8 1.50001C367.8 -0.299986 330.6 -0.299986 313 1.60001ZM360.9 184.5C364.7 186.4 368.6 191.1 370 195.6C373.5 206.2 364.8 238.9 351.4 265.4C340.1 287.8 323.3 308.2 310.4 315.2C302.8 319.3 294.4 321.3 291.1 319.7C287.1 317.8 287 311.8 290.9 303.7C297.7 289.4 318.9 264.3 326.8 261.1C329.8 259.8 330.3 259.9 332.5 262C333.9 263.3 335.2 264.1 335.5 263.8C336.6 262.7 354.1 225.7 357.5 217C360.5 209.6 361.4 206.1 361.4 201L361.5 194.5L357.8 194.2C348.4 193.4 329.8 208.1 311.4 231C269.2 283.4 219.3 381.2 202.9 444C199.1 458.4 197.9 475.5 200.3 481.2C204.7 491.7 215 489.9 235.2 474.8C240.3 471 246.6 465.8 249.1 463.3C253.3 459.3 253.8 458.2 254.4 453C256.4 435.8 267.8 406.8 281.6 384C295.1 361.6 312.5 341.8 323.5 336.5C328.9 333.8 329.5 333.7 333.9 334.9C340.1 336.6 344.8 340.4 347.2 345.8C349.1 350 349.1 350.5 347.6 353.7C345.6 357.8 345.6 358 347.5 358C349.9 358 359.6 362.6 361.8 364.8C363.8 366.8 363.8 366.8 357.1 380.1C347.6 399 340.3 422.1 336.5 444.5C334.7 455.3 334.8 463.1 336.7 463.7C339.1 464.5 344.7 457.6 347 451C348.2 447.4 350.1 443 351.2 441.2C352.9 438.5 353.7 438 357 438C359.1 438 363 438.9 365.6 440C369.5 441.7 370.6 441.8 371.6 440.8C377.5 434.7 396.5 398.2 413.8 359.5C428.7 326.3 430.9 322 432.9 322C435.4 322 445.2 327.2 450.2 331.2C454.8 334.8 454.9 334.5 449.2 348C443.2 362.2 433.7 396.4 431.5 412C430.9 416.4 431.1 416.2 435.8 407.3C444.7 391 463.8 365.2 480.7 347L487.6 339.6L492.3 341.4C499.6 344.2 506.5 349.2 506.3 351.5C506.2 352.6 504.1 359.3 501.6 366.5C494.1 388.6 489 414.8 489 432.2C489 440.7 489.3 442.3 491 444C493.1 446.1 495.2 446 501.6 443.4C506.1 441.5 515.4 432.8 520.5 425.6C525.4 418.6 533.2 403.1 535.7 395.3C536.7 392.2 537.9 390 538.8 390C541.8 390 546.4 393.7 548.1 397.5L549.9 401.4L545.9 409C530.7 438.2 485 466.8 468.9 457.3C464.8 454.8 461.3 447 460.5 438.5C459.4 426.2 464.1 399.9 470.4 382.4L472.8 375.8L469.8 378.6C457.3 390.4 430.8 434 426.9 448.9C425.7 453.7 425.6 453.8 421.2 454.4C413.4 455.5 407.6 455.1 405.1 453.4C402.9 451.8 402.8 451.4 403.4 443.6C404.2 434.8 408.8 410.8 411.9 399.5C413 395.7 413.7 392.4 413.6 392.2C413.4 392.1 412.1 394.3 410.7 397.2C407.3 404.2 395.2 425.2 388.2 436.5C375.9 456.3 359.7 476 355.8 476C355.1 476 352.6 475.1 350.3 474C347.3 472.7 346 471.5 346 470C346 468.9 345.7 468 345.4 468C345.1 468 341.4 469.7 337.2 471.7C327.4 476.6 321.4 476.8 315.1 472.7C310 469.3 308 465.1 308 457.4V451.7L305.4 455.6C295.7 470.2 275.7 484 264.4 484C258.4 484 255.8 481.8 254.1 475.2C253.4 472.9 252.8 471 252.6 471C252.4 471 249.5 474.3 246.1 478.4C226.3 502 195.4 517.9 176.7 514.1C169.9 512.6 165.8 510.1 162.1 505C157.8 499.1 156.6 492.6 157.4 480.1C159.1 451.4 172.2 412.3 195.9 365C240.7 275.6 303.7 200.4 347 184.4C351.7 182.7 357.5 182.7 360.9 184.5Z" fill="#1D2E69"/>
<path d="M314.4 287.2C311.9 290.7 308.9 295.2 307.9 297.2C306 301 305.4 305 306.8 305C307.2 305 310.4 299.6 313.8 293C317.3 286.4 319.9 281 319.6 281C319.3 281 316.9 283.8 314.4 287.2Z" fill="#1D2E69"/>
<path d="M321.5 354.3C312.8 363.3 303.9 379.4 294.5 403.5C286.1 424.8 277.8 456.2 279.9 458.3C282.7 461.1 292.1 453.5 303.7 438.8C310.4 430.4 310.7 429.8 315 414C318.7 400.6 326.2 380 332 367.6C334.2 362.7 336 358.1 336 357.3C336 355.5 329.7 349 327.9 349C327.2 349 324.3 351.4 321.5 354.3Z" fill="#1D2E69"/>
</svg>
